<svg width="240" height="116" viewBox="0 0 240 116" fill="none" xmlns="http://www.w3.org/2000/svg">
<rect width="240" height="116" rx="30" fill="url(#paint0_radial_698_7)"/>
<path d="M134.899 20.0002C140.262 20.0002 145.625 19.9994 150.988 20.001C150.991 21.2158 150.981 22.4313 150.993 23.6469C149.63 23.7067 148.237 23.8601 146.983 24.4337C145.71 25.0088 144.643 26.0553 144.094 27.3511C137.573 42.7704 131.057 58.1913 124.543 73.6137C124.43 73.8671 124.339 74.1291 124.208 74.3738C121.876 74.3462 119.542 74.3698 117.21 74.3612C116.181 72.3037 115.168 70.2376 114.13 68.1849C112.94 71.3919 111.743 74.5956 110.554 77.8017C118.248 77.8025 125.942 77.8017 133.636 77.8025C135.045 77.8214 136.496 77.7624 137.814 77.2085C140.004 76.3234 141.748 74.6129 143.167 72.7585C144.879 70.5114 146.179 67.9819 147.338 65.4115C148.637 65.4005 149.935 65.4155 151.234 65.4131C148.772 70.7034 146.297 75.989 143.813 81.2691C126.082 81.2699 108.353 81.2691 90.6221 81.2691C91.0539 80.1353 91.4645 78.9921 91.9276 77.8702C91.9557 77.7545 92.0989 77.7837 92.1857 77.7726C94.3993 77.7561 96.6277 77.6696 98.7998 77.2062C99.93 76.9394 101.099 76.5838 101.969 75.7719C102.429 75.3305 102.572 74.6861 102.725 74.0913C104.819 68.4548 106.916 62.8191 109.011 57.1834C104.582 47.6917 100.139 38.2055 95.7078 28.7146C95.3512 27.8845 94.8803 27.0623 94.1396 26.5218C92.6065 25.3668 90.6143 25.2205 88.7684 25.1465C88.7668 23.7862 88.7684 22.4266 88.7676 21.0663C94.9929 21.0639 101.218 21.0647 107.443 21.0655C107.444 22.4258 107.444 23.7862 107.442 25.1465C106.631 25.1984 105.77 25.1851 105.035 25.5887C104.671 25.7618 104.457 26.1977 104.55 26.5942C104.665 27.2433 105.175 27.7067 105.433 28.2929C108.062 33.9884 110.691 39.6846 113.328 45.3778C114.649 41.6618 115.97 37.9466 117.297 34.233C117.492 33.7169 117.56 33.1205 117.338 32.6013C117.164 32.1913 116.768 31.938 116.378 31.7673C115.619 31.4526 114.785 31.4557 113.981 31.3975C114.392 30.2496 114.805 29.1017 115.23 27.96C115.329 27.8963 115.466 27.9451 115.579 27.9294C121.895 27.9333 128.212 27.9294 134.529 27.9317C134.092 29.0851 133.658 30.2386 133.227 31.3936C131.705 31.4644 130.137 31.5029 128.71 32.1009C128.056 32.3762 127.438 32.7972 127.051 33.4061C126.783 33.8522 126.616 34.3503 126.437 34.8365C123.797 42.0764 121.134 49.307 118.525 56.5579C119.97 59.8443 121.477 63.1023 122.951 66.3753C128.305 53.6578 133.658 40.9388 139.018 28.2236C139.379 27.4589 139.967 26.761 140.014 25.8814C140.058 25.1929 139.551 24.5989 138.962 24.3165C137.694 23.728 136.269 23.6988 134.899 23.6493C134.897 22.4329 134.897 21.2166 134.899 20.0002V20.0002ZM144.635 88.4767C146.325 90.2375 148.002 92.0101 149.676 93.7859C149.673 92.1352 149.683 90.4838 149.681 88.8331C149.971 88.8339 150.26 88.8307 150.55 88.8268C150.551 91.1832 150.551 93.5404 150.55 95.8968C148.858 94.1447 147.192 92.3689 145.508 90.6081C145.511 92.269 145.504 93.9306 145.504 95.5923C145.213 95.5947 144.924 95.5939 144.635 95.5939C144.634 93.221 144.633 90.8488 144.635 88.4767V88.4767ZM95.4286 88.7191C97.291 88.4311 99.2613 89.8977 99.4271 91.808C99.5835 92.9008 99.1619 94.0401 98.3665 94.793C97.0587 96.0802 94.7067 96.0566 93.4372 94.7238C92.7512 94.055 92.3601 93.0912 92.4016 92.129C92.4204 90.4547 93.7962 88.9591 95.4286 88.7191V88.7191ZM95.4294 89.5846C94.3453 89.7624 93.463 90.7199 93.3113 91.8049C93.1048 93.0377 93.8611 94.3642 95.0446 94.7671C96.0802 95.1605 97.3403 94.7899 98.0051 93.9008C98.8647 92.8159 98.7192 91.0653 97.6617 90.1644C97.0673 89.6208 96.2077 89.4414 95.4294 89.5846V89.5846ZM108.877 89.0834C109.832 88.3627 111.391 88.6609 111.941 89.7498C111.711 89.8804 111.481 90.0118 111.251 90.1424C110.838 89.4917 109.829 89.3328 109.273 89.8851C109.038 90.0582 109.064 90.3753 109.089 90.6357C109.156 90.9756 109.516 91.1196 109.781 91.2793C110.464 91.6412 111.286 91.8497 111.766 92.5059C112.302 93.2384 112.213 94.3288 111.629 95.007C111.018 95.7506 109.901 95.9315 109.047 95.5421C108.392 95.2163 107.986 94.5279 107.855 93.8222C108.148 93.7521 108.443 93.6876 108.737 93.6215C108.767 94.2651 109.264 94.9158 109.94 94.9276C110.852 95.0275 111.577 93.8347 111.046 93.0739C110.479 92.2974 109.385 92.2864 108.733 91.6152C107.965 90.9835 108.042 89.6215 108.877 89.0834V89.0834ZM140.014 88.7143C141.234 88.5609 142.495 89.1274 143.244 90.0982C144.324 91.4578 144.151 93.627 142.869 94.7961C142.137 95.5239 141.061 95.8236 140.05 95.7159C139.051 95.6498 138.117 95.0864 137.54 94.2713C136.919 93.4019 136.758 92.2399 137.052 91.2178C137.436 89.8937 138.661 88.8874 140.014 88.7143ZM139.864 89.5963C138.519 89.8268 137.557 91.2682 137.793 92.6089C137.942 93.8984 139.159 94.948 140.445 94.9236C141.323 94.9385 142.16 94.4381 142.633 93.7064C143.352 92.6584 143.163 91.11 142.237 90.2477C141.63 89.6301 140.694 89.4216 139.864 89.5963V89.5963ZM89.4668 88.8285C89.7445 88.8269 90.0222 88.8269 90.2999 88.8285C90.3006 90.8261 90.2991 92.8245 90.3006 94.8221C90.9905 94.8237 91.6796 94.8221 92.3695 94.8229C92.3711 95.0794 92.3711 95.3359 92.3703 95.5932C91.402 95.594 90.4344 95.5948 89.4668 95.5932C89.4676 93.3383 89.4676 91.0834 89.4668 88.8285V88.8285ZM100.101 88.834C100.395 88.8316 100.689 88.8324 100.984 88.8332C100.986 90.1644 100.98 91.4964 100.987 92.8277C101 93.413 101.072 94.0566 101.483 94.5074C102.138 95.1534 103.424 95.0613 103.881 94.2242C104.112 93.8308 104.179 93.365 104.173 92.915C104.167 91.5547 104.167 90.1943 104.168 88.8332C104.462 88.8316 104.756 88.8324 105.05 88.8332C105.05 90.2218 105.053 91.6105 105.049 92.9992C105.051 93.6294 104.942 94.2958 104.542 94.8025C103.681 96.0023 101.684 96.0708 100.741 94.937C100.293 94.465 100.108 93.7993 100.102 93.1589C100.098 91.7175 100.101 90.2754 100.101 88.834V88.834ZM106.137 88.8292C106.426 88.826 106.716 88.8268 107.006 88.8284C107.006 91.0833 107.007 93.3382 107.006 95.5939C106.716 95.5939 106.426 95.5947 106.136 95.5923C106.137 93.3382 106.137 91.0833 106.137 88.8292ZM114.846 88.8348C115.165 88.8261 115.484 88.8261 115.804 88.8277C116.472 90.472 117.129 92.1203 117.786 93.7694C118.44 92.1259 119.114 90.4901 119.754 88.8411C120.081 88.8135 120.41 88.8324 120.738 88.8277C119.761 91.2203 118.781 93.6113 117.795 96C116.792 93.62 115.825 91.2242 114.846 88.8348ZM121.136 88.8269C121.426 88.8308 121.715 88.834 122.005 88.8332C122.016 90.144 122.004 91.4555 122.015 92.7663C122.035 93.3886 122.083 94.0944 122.555 94.5554C123.101 95.0251 123.969 95.0543 124.551 94.6365C124.889 94.3941 125.076 93.9913 125.149 93.5901C125.265 92.8993 125.223 92.1967 125.231 91.4996C125.236 90.6113 125.237 89.723 125.235 88.8348C125.514 88.8316 125.793 88.8324 126.072 88.8332C126.085 90.0653 126.074 91.2966 126.077 92.5287C126.097 93.2927 126.073 94.1219 125.611 94.7671C124.801 95.9417 122.938 96.0684 121.913 95.114C121.401 94.6373 121.144 93.9339 121.14 93.2399C121.132 91.7687 121.138 90.2982 121.136 88.8269ZM127.164 88.8332C127.466 88.834 127.768 88.8308 128.07 88.8277C128.07 91.0826 128.07 93.3375 128.07 95.5932C127.766 95.594 127.463 95.594 127.159 95.5932C127.156 93.3399 127.166 91.0865 127.164 88.8332ZM128.613 88.8332C131.325 88.8355 134.036 88.8285 136.748 88.8293C136.747 89.0991 136.747 89.369 136.748 89.6396C136.228 89.642 135.708 89.6396 135.189 89.6404C135.187 91.6247 135.188 93.6089 135.188 95.5932C134.886 95.594 134.584 95.594 134.281 95.5932C134.279 93.6089 134.286 91.6247 134.278 89.6404C133.213 89.642 132.149 89.6396 131.084 89.6412C131.083 91.6255 131.084 93.6089 131.083 95.5932C130.806 95.594 130.528 95.594 130.251 95.5932C130.25 93.6089 130.252 91.6255 130.25 89.6412C129.704 89.6396 129.159 89.642 128.613 89.6396C128.613 89.3706 128.613 89.1015 128.613 88.8332V88.8332Z" fill="white"/>
<defs>
<radialGradient id="paint0_radial_698_7" cx="0" cy="0" r="1" gradientUnits="userSpaceOnUse" gradientTransform="translate(120 58) rotate(90) scale(58 120)">
<stop stop-color="#262626"/>
<stop offset="1" stop-color="#272727"/>
</radialGradient>
</defs>
</svg>
