<svg width="240" height="116" viewBox="0 0 240 116" fill="none" xmlns="http://www.w3.org/2000/svg">
<rect width="240" height="116" rx="30" fill="url(#paint0_radial_698_8)"/>
<g clip-path="url(#clip0_698_8)">
<path d="M179.076 85.2837L159.074 29.0371L159.061 29H158.666L154.547 40.5585L147.049 61.6009L147.031 61.5843C144.433 59.2421 140.766 57.778 136.149 57.2327L134.74 57.0843L136.137 56.9012C143.752 55.5036 148.871 50.5915 148.871 44.6733C148.871 36.5577 141.398 30.8929 130.693 30.8929H108.42V31.3038H114.892V73.2388L99.1736 29.0371L99.1598 29H98.7651L94.6463 40.5585L78.7601 85.1391L78.6624 85.1506C78.3908 85.1848 78.1223 85.212 77.8567 85.2325C77.4569 85.2645 77.0597 85.2837 76.6612 85.2837H60.6097L91.1215 31.3038L91.3483 30.898H54.0311V47.5966H54.4271C54.4973 39.463 59.1348 31.3038 69.381 31.3038H81.7424L51 85.6881H92.4159V69.6897H92.0199C91.966 76.7789 88.0314 83.5123 79.4756 85.0328L79.2037 85.0802L85.7196 66.787H103.973L110.55 85.2837H104.062V85.6881H129.527V85.2837H123.012V57.3825H130.53C138.181 57.3825 142.569 60.874 142.569 66.9585V71.9077C142.569 72.453 142.606 73.2503 142.646 73.9171V73.9415L138.605 85.2811H133.325V85.6856H144.253V85.2811H139.031L142.711 74.9551C142.718 75.0549 142.722 75.1151 142.722 75.1151L142.824 76.0456L142.921 76.6612C143.535 80.4688 144.961 83.2679 147.158 84.9804L147.474 85.2146C149.143 86.3997 151.217 87 153.641 87C156.853 87 158.994 86.1822 160.762 84.2572L160.53 84.0345C158.902 85.5704 157.534 86.1924 155.822 86.1924C152.903 86.1924 151.376 82.5768 151.376 79.011V72.0767C151.391 70.356 151.127 68.6447 150.595 67.0122L150.522 66.7972V66.7895H163.874L170.451 85.2863H163.963V85.6907H186V85.2863L179.076 85.2837ZM85.8649 66.3825L94.8568 41.1498L103.829 66.3825H85.8649ZM123.015 56.9767V31.3038H128.754C136.421 31.3038 140.468 35.9587 140.468 44.7604C140.468 54.1213 138.145 56.9767 130.53 56.9767H123.015ZM150.367 66.3825L150.328 66.2827C149.735 64.8067 148.871 63.4601 147.783 62.3151L147.407 61.9311L147.367 61.8927L154.753 41.1498L163.725 66.3825H150.367Z" fill="white"/>
</g>
<defs>
<radialGradient id="paint0_radial_698_8" cx="0" cy="0" r="1" gradientUnits="userSpaceOnUse" gradientTransform="translate(120 58) rotate(90) scale(58 120)">
<stop stop-color="#262626"/>
<stop offset="1" stop-color="#272727"/>
</radialGradient>
<clipPath id="clip0_698_8">
<rect width="135" height="58" fill="white" transform="translate(51 29)"/>
</clipPath>
</defs>
</svg>
