<svg width="240" height="116" viewBox="0 0 240 116" fill="none" xmlns="http://www.w3.org/2000/svg">
<rect width="240" height="116" rx="30" fill="url(#paint0_radial_698_6)"/>
<path d="M126.582 18.4931V18.2215C126.582 16.9542 126.987 15.8227 127.797 14.827C128.607 13.8312 129.642 13.3334 130.903 13.3334C132.163 13.3334 133.288 13.7407 134.279 14.5554C135.269 15.3701 135.809 16.4564 135.899 17.8142C135.989 19.172 135.584 20.3035 134.684 21.2087C133.784 22.1139 132.703 22.5665 131.443 22.5665L130.633 22.8381L130.903 23.2455L130.633 24.7391L130.093 29.0841C130.273 29.2651 130.363 29.4462 130.363 29.6272L129.822 32.3428C129.642 32.7049 129.462 32.9765 129.282 33.1575L129.012 34.2438C128.652 35.6921 128.337 36.8689 128.067 37.7741C127.797 38.6793 127.572 39.4035 127.392 39.9466V40.4897C127.212 41.395 127.077 42.1191 126.987 42.6623C126.897 43.2054 126.582 44.1106 126.041 45.3779C125.681 46.1021 125.681 47.2788 126.041 48.9082L126.311 49.1798C126.311 49.7229 126.537 50.3566 126.987 51.0807C127.437 51.8049 127.662 52.4386 127.662 52.9817C127.842 56.6025 127.572 59.6803 126.852 62.2148L127.392 63.8442C129.552 64.9305 130.183 66.1073 129.282 67.3746L130.633 67.9177C132.793 69.0039 134.324 69.9544 135.224 70.7691C136.124 71.5838 137.025 72.4437 137.925 73.349C138.645 73.53 139.185 73.8016 139.545 74.1637L140.356 74.4352C144.137 76.9698 147.918 80.0475 151.699 83.6684L152.779 84.4831V84.7546L152.509 85.2978L153.319 85.8409H153.589C154.13 86.203 154.49 86.384 154.67 86.384H154.94C155.12 86.384 155.3 86.2935 155.48 86.1125L156.02 85.8409C156.38 85.4788 156.74 85.2072 157.101 85.0262H158.181C158.361 85.0262 158.361 85.1167 158.181 85.2978L157.101 85.8409L155.75 87.4703H157.641L159.531 87.7418C160.071 87.5608 160.522 87.3798 160.882 87.1987L162.232 86.384C162.772 86.203 163.312 86.384 163.853 86.9271H164.123C164.303 87.1082 164.213 87.3798 163.853 87.7418L160.612 90.729C159.711 91.4532 158.901 91.9058 158.181 92.0869L154.67 94.5309C154.49 94.712 154.31 94.712 154.13 94.5309L153.319 93.4447L152.779 92.3584L152.104 91.4079L151.294 90.3217L150.619 89.507L150.078 88.8281L148.998 88.0134C148.638 88.0134 148.278 87.9229 147.918 87.7418L144.407 85.0262C143.867 85.0262 143.236 84.7546 142.516 84.2115C139.815 81.858 138.015 80.4096 137.115 79.8665L135.494 78.7802L132.253 78.2371C131.173 78.0561 129.732 77.5129 127.932 76.6077L125.771 75.5215C124.331 74.7973 123.341 74.4352 122.8 74.4352L121.72 73.8921C121 73.711 120.46 73.53 120.1 73.349L119.559 72.8058C119.199 72.8058 118.839 72.8964 118.479 73.0774L113.078 75.793L106.326 78.7802C104.525 80.2286 102.814 81.4054 101.194 82.3106L98.2231 83.6684L93.6318 86.9271C93.2717 87.2892 92.9116 87.2892 92.5515 86.9271L92.0113 87.4703C91.4711 87.6513 91.111 87.7418 90.931 87.7418L89.8507 88.285V88.8281H89.3105L88.7704 89.6428C88.4102 90.367 88.0501 90.7743 87.69 90.8648C87.3299 90.9553 87.1049 91.0911 87.0148 91.2722C86.9248 91.4532 86.8348 91.589 86.7448 91.6795L86.2046 92.2226L85.3944 92.7658L84.179 92.63L82.5585 92.9016L81.4782 93.1731C80.5779 93.3542 79.8577 93.2184 79.3176 92.7658C78.7774 92.3132 78.3273 91.6342 77.9672 90.729C77.6071 90.1859 77.7871 89.7333 78.5073 89.3712L78.7774 89.0997C78.9575 88.9186 79.2275 88.8281 79.5876 88.8281H81.2081L83.3688 88.0134L84.4491 87.7418C84.4491 87.3798 84.5391 87.1082 84.7192 86.9271C84.8992 86.7461 85.1693 86.6556 85.5294 86.6556V86.384C85.3493 86.0219 85.2593 85.6599 85.2593 85.2978C85.0793 84.9357 85.0342 84.6641 85.1243 84.4831C85.2143 84.302 85.3043 84.2115 85.3944 84.2115H85.5294L85.7995 85.0262C85.9795 85.9314 86.2496 86.203 86.6097 85.8409L86.8798 85.2978C87.0598 84.9357 87.3299 84.7546 87.69 84.7546L88.2302 85.2978L88.7704 84.7546L88.5003 84.4831C88.5003 84.302 88.5903 84.2115 88.7704 84.2115L89.8507 83.1253C90.7509 82.039 91.8313 81.0433 93.0916 80.1381C95.6124 78.1466 98.3132 76.6077 101.194 75.5215C102.094 74.6163 103.085 74.1637 104.165 74.1637C104.885 72.8964 105.965 71.5385 107.406 70.0902C108.666 69.185 109.566 68.5513 110.107 68.1892C110.467 67.4651 110.917 67.103 111.457 67.103H111.727L112.267 66.5599C112.627 66.3788 112.897 66.1978 113.078 66.0167V64.6589C113.078 63.7537 113.168 63.0295 113.348 62.4864C113.528 61.9433 113.978 61.6717 114.698 61.6717L115.778 60.5855C115.418 59.8613 115.238 59.0466 115.238 58.1414H114.968C114.608 57.5983 114.428 57.0551 114.428 56.512C113.888 55.6068 113.528 54.8826 113.348 54.3395H112.537C112.357 54.8826 111.907 55.2447 111.187 55.4258L110.917 55.9689C110.197 57.2362 109.566 58.1867 109.026 58.8203C108.486 59.4539 107.496 60.2234 106.055 61.1286C105.155 62.0338 104.525 63.0295 104.165 64.1158C103.985 64.6589 103.985 65.202 104.165 65.7452L103.895 66.2883H104.165C104.165 66.6504 104.255 66.8314 104.435 66.8314H104.705C105.065 67.0125 105.245 67.2388 105.245 67.5103C105.245 67.7819 104.975 67.8724 104.435 67.7819C103.895 67.6914 103.49 67.5103 103.22 67.2388C102.95 66.9672 102.724 66.8314 102.544 66.8314L101.734 67.6461C101.374 68.1892 101.014 68.4156 100.654 68.325C100.294 68.2345 100.204 68.0987 100.384 67.9177L100.654 67.6461C100.834 67.284 100.834 67.103 100.654 67.103L98.4932 67.6461C98.3132 67.8272 98.0881 67.8272 97.818 67.6461C97.5479 67.4651 97.593 67.284 97.9531 67.103L99.3035 66.5599C99.3035 66.3788 99.2134 66.2883 99.0334 66.2883C98.3132 66.6504 97.593 66.7409 96.8727 66.5599L95.5223 66.2883L95.2523 66.0167C95.2523 65.8357 95.3423 65.7452 95.5223 65.7452C96.2426 65.9262 97.1428 65.8357 98.2231 65.4736L100.114 64.6589L102.274 62.2148L102.544 61.6717C103.265 60.2234 104.03 58.9108 104.84 57.734C105.65 56.5573 106.506 55.6068 107.406 54.8826L107.676 53.7964C108.036 53.0722 108.396 52.4386 108.756 51.8954C109.116 51.3523 109.566 50.6281 110.107 49.7229L110.917 48.6367C111.637 47.5504 112.447 47.0073 113.348 47.0073L114.158 46.1926C114.338 46.0115 114.428 45.74 114.428 45.3779L114.968 44.8348L114.698 44.5632C113.618 43.658 113.078 42.8433 113.078 42.1191C112.897 40.8518 113.303 39.7656 114.293 38.8604C115.283 37.9552 116.273 37.5478 117.264 37.6383C118.254 37.7288 119.019 38.0457 119.559 38.5888L120.1 39.1319C120.28 39.1319 120.37 39.2224 120.37 39.4035L121.45 39.9466V40.7613C121.81 41.1234 121.99 41.395 121.99 41.576C122.35 41.0329 122.89 40.3992 123.611 39.6751L124.961 35.33C124.961 34.6059 125.141 33.8817 125.501 33.1575L126.041 32.3428V31.7997L126.852 28.5409H127.392L128.202 25.2822C128.382 24.7391 128.382 24.1054 128.202 23.3812L127.122 20.6656L126.582 18.4931Z" fill="white"/>
<defs>
<radialGradient id="paint0_radial_698_6" cx="0" cy="0" r="1" gradientUnits="userSpaceOnUse" gradientTransform="translate(120 58) rotate(90) scale(58 120)">
<stop stop-color="#262626"/>
<stop offset="1" stop-color="#272727"/>
</radialGradient>
</defs>
</svg>
