<svg width="239" height="116" viewBox="0 0 239 116" fill="none" xmlns="http://www.w3.org/2000/svg">
<rect width="239" height="116" rx="30" fill="url(#paint0_radial_698_5)"/>
<path fill-rule="evenodd" clip-rule="evenodd" d="M169.483 79.267H169.807C169.972 79.267 170.152 79.2986 170.152 79.5042C170.152 79.7494 169.954 79.7603 169.739 79.7603H169.483V79.267ZM169.24 80.6207H169.483V79.9533H169.742L170.17 80.6207H170.432L169.983 79.936C170.216 79.9126 170.396 79.7946 170.396 79.515C170.396 79.2168 170.221 79.0723 169.846 79.0723H169.24V80.6207H169.24ZM168.654 79.8404C168.654 79.2073 169.135 78.7171 169.763 78.7171C170.385 78.7171 170.868 79.207 170.868 79.8404C170.868 80.4887 170.385 80.9786 169.763 80.9786C169.135 80.9786 168.654 80.4887 168.654 79.8404ZM168.409 79.8404C168.409 80.6017 169.027 81.1737 169.763 81.1737C169.941 81.1746 170.117 81.1407 170.281 81.074C170.445 81.0073 170.595 80.9091 170.72 80.785C170.846 80.661 170.945 80.5136 171.012 80.3514C171.079 80.1892 171.113 80.0155 171.111 79.8404C171.111 79.0926 170.496 78.5227 169.763 78.5227C169.027 78.5227 168.409 79.0926 168.409 79.8404ZM153.359 77.8706V80.085H147.734V82.5867H151.598C151.91 82.5866 152.219 82.6472 152.508 82.765C152.796 82.8828 153.059 83.0555 153.279 83.2732C153.5 83.491 153.675 83.7495 153.795 84.034C153.914 84.3185 153.976 84.6234 153.976 84.9313V86.9883C153.976 87.2962 153.914 87.6012 153.795 87.8857C153.675 88.1702 153.5 88.4287 153.279 88.6464C153.059 88.8642 152.796 89.0369 152.508 89.1547C152.219 89.2725 151.91 89.333 151.598 89.3329H145.062V87.1189H151.519V84.8007H147.655C147.342 84.8008 147.033 84.7402 146.745 84.6223C146.456 84.5045 146.194 84.3318 145.973 84.1141C145.752 83.8964 145.577 83.6379 145.458 83.3534C145.338 83.0689 145.277 82.764 145.277 82.4561V80.2153C145.277 79.5935 145.528 78.9972 145.973 78.5575C146.419 78.1179 147.024 77.8708 147.655 77.8706H153.359ZM166.252 89.3333H160.548C160.235 89.3333 159.926 89.2727 159.637 89.1549C159.349 89.0371 159.087 88.8644 158.866 88.6467C158.645 88.4289 158.47 88.1704 158.351 87.8859C158.231 87.6015 158.17 87.2966 158.17 86.9886V80.2153C158.17 79.5935 158.42 78.9972 158.866 78.5575C159.312 78.1179 159.917 77.8708 160.548 77.8706H166.252V80.085H160.627V82.6383H166.252V84.8526H160.627V87.1189H166.252V89.3333ZM127.731 89.3333H122.027C121.714 89.3333 121.405 89.2726 121.117 89.1548C120.828 89.037 120.566 88.8643 120.345 88.6465C120.124 88.4288 119.949 88.1703 119.83 87.8859C119.71 87.6014 119.649 87.2965 119.649 86.9886V80.2153C119.649 79.5936 119.9 78.9974 120.346 78.5578C120.791 78.1181 121.396 77.871 122.027 77.8706H127.731V80.085H122.106V82.6383H127.731V84.8526H122.106V87.1189H127.731V89.3333ZM94.9165 77.8706H100.333C100.963 77.8708 101.568 78.1179 102.014 78.5575C102.46 78.9972 102.71 79.5935 102.71 80.2153V89.3333H100.253V80.085H96.1586V89.3333H93.7016V77.8706H94.9165ZM134.6 82.6386H138.957V80.085H134.6V82.6386ZM141.414 80.5294V82.5083C141.414 83.081 141.202 83.6339 140.817 84.0626C140.432 84.4914 139.901 84.7664 139.324 84.8357L141.628 89.3333H138.862L136.853 84.853H134.6V89.3333H132.143V77.8706H139.037C139.667 77.8709 140.272 78.118 140.718 78.5577C141.164 78.9973 141.414 79.5935 141.415 80.2153V80.5294H141.414ZM108.339 77.8706L111.086 87.4063L113.992 77.8706H116.793L113.041 89.3333H109.184L105.591 77.8706H108.339ZM67.8887 80.2153C67.8889 79.5936 68.1395 78.9974 68.5853 78.5578C69.0311 78.1181 69.6357 77.871 70.2662 77.8706H76.3694V80.085H70.3461V87.1189H76.3698V89.3329H70.2666C69.9543 89.3329 69.6451 89.2723 69.3566 89.1545C69.0682 89.0366 68.806 88.8639 68.5853 88.6462C68.3645 88.4285 68.1894 88.17 68.0699 87.8855C67.9504 87.6011 67.889 87.2962 67.889 86.9883V80.2153H67.8887ZM80.1212 80.2153C80.1215 79.5935 80.3721 78.9973 80.818 78.5576C81.2639 78.118 81.8686 77.8709 82.4991 77.8706H87.5715C88.2021 77.8708 88.8069 78.1179 89.2529 78.5575C89.6988 78.9972 89.9495 79.5934 89.9498 80.2153V86.9886C89.9498 87.2966 89.8883 87.6015 89.7688 87.886C89.6493 88.1705 89.4741 88.429 89.2533 88.6468C89.0324 88.8645 88.7702 89.0372 88.4817 89.155C88.1931 89.2728 87.8838 89.3334 87.5715 89.3333H82.4991C82.1869 89.3333 81.8776 89.2727 81.5891 89.1549C81.3006 89.0371 81.0384 88.8644 80.8176 88.6467C80.5968 88.4289 80.4216 88.1704 80.3022 87.8859C80.1827 87.6015 80.1212 87.2966 80.1212 86.9886V80.2153ZM82.5786 80.0853H87.4931V87.1193H82.5786V80.0853ZM117.862 35.1329L121.022 44.7222H131.247L122.975 50.6474L126.135 60.2384L117.862 54.3115L109.59 60.2384L112.749 50.6474L104.477 44.7222H114.702L117.862 35.1329ZM136.924 48.6794C136.924 59.0602 128.39 67.4742 117.862 67.4742C107.334 67.4742 98.799 59.0598 98.799 48.6794C98.799 38.2989 107.334 29.8828 117.862 29.8828C128.39 29.8828 136.924 38.2989 136.924 48.6794V48.6794ZM117.862 26.6666C105.533 26.6666 95.5375 36.5212 95.5375 48.6797C95.5375 60.8365 105.533 70.6911 117.862 70.6911C130.192 70.6911 140.186 60.8365 140.186 48.6797C140.186 36.5209 130.192 26.6666 117.862 26.6666Z" fill="white"/>
<defs>
<radialGradient id="paint0_radial_698_5" cx="0" cy="0" r="1" gradientUnits="userSpaceOnUse" gradientTransform="translate(119.5 58) rotate(90) scale(58 119.5)">
<stop stop-color="#262626"/>
<stop offset="1" stop-color="#272727"/>
</radialGradient>
</defs>
</svg>
