<svg width="239" height="116" viewBox="0 0 239 116" fill="none" xmlns="http://www.w3.org/2000/svg">
<rect width="239" height="116" rx="30" fill="url(#paint0_radial_698_4)"/>
<g clip-path="url(#clip0_698_4)">
<path d="M139.573 26.0022C143.169 24.2174 144.951 24.4516 144.991 26.2607C145.039 28.6107 144.696 31.7358 144.448 33.9971C143.113 46.2874 140.884 56.3303 140.716 68.9492C146.589 53.5829 151.512 42.9029 157.857 29.7493C159.871 25.558 161.157 26.3414 162.811 25.5984C169.252 22.6993 169.492 24.4759 168.653 28.0212C165.528 41.1522 157.529 82.496 156.307 88.8622C155.955 90.7042 153.973 89.9233 153.462 89.203C151.168 85.997 148.579 85.9469 148.867 83.8149C150.305 73.201 155.483 46.5709 156.834 40.2961C149.953 54.5512 142.818 72.3717 139.15 82.476C138.374 84.6216 136.96 84.4642 136.081 82.8943C134.842 80.6889 132.437 79.5631 132.037 76.957C130.783 68.6715 133.476 52.8788 133.851 42.8875C130.104 53.8018 123.815 74.9914 121.058 84.565C119.923 88.5262 116.135 87.88 117.142 84.0192C121.329 67.9527 130.351 39.537 134.251 29.3213C135.17 26.9146 137.575 26.9954 139.573 26.0022Z" fill="white"/>
<path d="M116.735 24.0316C115.521 23.7329 111.996 25.6549 109.831 26.0344C109.144 26.1555 108.488 26.8904 108.257 27.4154C104.788 35.4668 101.68 43.1419 98.9869 50.1337C95.5427 50.7281 91.5154 51.5106 87.0084 52.5338C90.2367 44.165 93.4971 35.9108 96.6775 27.9725C98.2437 24.0638 94.1205 23.6924 92.5221 27.6495C90.4444 32.7938 86.5528 42.432 82.2455 53.666C79.0811 54.4501 75.7249 55.3465 72.2168 56.3706C69.6675 57.1143 69.5638 57.8007 70.6665 59.3456C71.2738 60.2058 72.5284 60.1191 73.1037 60.7321C74.5901 62.3207 75.4931 64.2208 78.154 64.5084C75.7806 70.9244 73.4073 77.5409 71.2577 83.9117C69.9073 87.9107 73.7509 88.7287 75.2294 84.497C77.6107 77.6756 80.1199 70.7716 82.701 63.888C84.8506 63.3832 90.0527 62.2509 94.8553 61.1979C91.0436 71.7559 88.5343 79.7743 87.5835 83.6773C87.4077 84.4283 87.7033 84.845 87.8631 85.1511C89.1496 87.0432 90.3723 87.1207 92.0265 89.4602C92.4741 90.0981 93.9765 90.4422 94.4878 88.8714C98.0198 78.0896 101.656 67.9733 105.044 58.9043C106.45 58.5934 108.983 57.9756 110.534 55.6377C113.291 51.4883 114.082 52.3299 114.745 51.0685C115.576 49.4849 115.025 47.9981 112.084 48.3655C112.084 48.3655 110.973 48.4454 108.92 48.682C112.18 40.1986 115.033 33.0031 117.086 27.5199C117.79 25.663 117.878 24.3062 116.735 24.0316Z" fill="white"/>
<path d="M111.925 79.054C112.684 80.9929 115.058 80.4058 114.155 78.0656C113.236 75.6815 110.95 68.5047 110.351 66.1926C109.536 63.0771 113.068 63.9291 111.278 65.9659C109.744 67.7173 108.721 68.4191 105.884 71.7495C103.143 74.9645 103.886 79.1364 106.819 80.0579C110.127 81.098 113.044 77.4139 114.85 74.7111C116.6 72.0937 114.906 70.5586 113.14 72.1059C112.005 73.1008 110.694 74.6286 109.368 75.4524C108.289 76.1154 107.442 75.4031 108.88 73.402C110.551 71.0852 112.42 69.1438 113.811 66.9544C116.648 62.4926 111.038 59.9206 108.625 62.8189C107.33 64.3638 107.658 65.8805 108.009 67.1821C108.577 69.2672 110.686 75.9232 111.925 79.054Z" fill="white"/>
</g>
<defs>
<radialGradient id="paint0_radial_698_4" cx="0" cy="0" r="1" gradientUnits="userSpaceOnUse" gradientTransform="translate(119.5 58) rotate(90) scale(58 119.5)">
<stop stop-color="#262626"/>
<stop offset="1" stop-color="#272727"/>
</radialGradient>
<clipPath id="clip0_698_4">
<rect width="99" height="66" fill="white" transform="translate(70 24)"/>
</clipPath>
</defs>
</svg>
