<svg width="241" height="116" viewBox="0 0 241 116" fill="none" xmlns="http://www.w3.org/2000/svg">
<rect width="241" height="116" rx="30" fill="url(#paint0_radial_698_3)"/>
<path d="M70.1194 80.9813C66.3055 80.8285 63.1852 79.7762 60.7453 77.8217C60.2797 77.4483 59.1702 76.3288 58.7979 75.8567C57.8085 74.6022 57.1359 73.3813 56.6872 72.0267C55.3066 67.857 56.0172 62.3853 58.7195 56.3802C61.0333 51.2391 64.6036 46.1402 70.8325 39.0782C71.7501 38.0391 74.4825 35 74.5001 35C74.5066 35 74.3577 35.2601 74.1703 35.5769C72.5507 38.3124 71.1649 41.5345 70.41 44.324C69.1972 48.8 69.3435 52.6411 70.8384 55.6196C71.8696 57.6716 73.6374 59.4489 75.6253 60.4315C79.1055 62.1509 84.2006 62.2931 90.423 60.8476C90.8514 60.7476 112.08 55.0652 137.597 48.2198C163.115 41.3738 183.997 35.7771 184 35.7817C184.007 35.7876 124.715 61.3712 93.9358 74.6437C89.0614 76.745 87.7579 77.2758 85.4663 78.0871C79.6083 80.1614 74.361 81.1512 70.1194 80.9813V80.9813Z" fill="white"/>
<defs>
<radialGradient id="paint0_radial_698_3" cx="0" cy="0" r="1" gradientUnits="userSpaceOnUse" gradientTransform="translate(120.5 58) rotate(90) scale(58 120.5)">
<stop stop-color="#262626"/>
<stop offset="1" stop-color="#272727"/>
</radialGradient>
</defs>
</svg>
