<svg width="39" height="40" viewBox="0 0 39 40" fill="none" xmlns="http://www.w3.org/2000/svg">
<path d="M28.3175 12.6792C26.7875 11.9604 25.1475 11.4292 23.4325 11.1271C23.4172 11.124 23.4014 11.126 23.3872 11.1327C23.3731 11.1394 23.3613 11.1506 23.3535 11.1646C23.1435 11.549 22.9095 12.05 22.7455 12.4458C20.9266 12.1628 19.0774 12.1628 17.2585 12.4458C17.0758 12.0072 16.8698 11.5794 16.6415 11.1646C16.6337 11.1504 16.622 11.139 16.6079 11.132C16.5938 11.1249 16.578 11.1225 16.5625 11.125C14.8485 11.4271 13.2085 11.9583 11.6775 12.6781C11.6643 12.6839 11.6531 12.6937 11.6455 12.7063C8.53348 17.4719 7.68048 22.1198 8.09948 26.7094C8.10065 26.7206 8.104 26.7315 8.10933 26.7414C8.11465 26.7512 8.12185 26.7598 8.13048 26.7667C9.94687 28.1442 11.9728 29.1936 14.1235 29.8708C14.1385 29.8757 14.1545 29.8756 14.1695 29.8708C14.1845 29.866 14.1977 29.8566 14.2075 29.8438C14.6703 29.199 15.0804 28.5151 15.4335 27.799C15.4384 27.7892 15.4412 27.7784 15.4418 27.7674C15.4423 27.7564 15.4406 27.7453 15.4367 27.7351C15.4328 27.7248 15.4269 27.7155 15.4192 27.7078C15.4116 27.7002 15.4025 27.6943 15.3925 27.6906C14.7465 27.4372 14.1206 27.1314 13.5205 26.7761C13.5097 26.7696 13.5006 26.7605 13.494 26.7496C13.4875 26.7386 13.4836 26.7261 13.4828 26.7132C13.482 26.7003 13.4843 26.6874 13.4895 26.6756C13.4947 26.6639 13.5026 26.6536 13.5125 26.6458C13.6385 26.549 13.7645 26.4479 13.8845 26.3469C13.8953 26.3378 13.9083 26.332 13.9221 26.3302C13.9358 26.3283 13.9498 26.3305 13.9625 26.3365C17.8895 28.174 22.1425 28.174 26.0235 26.3365C26.0362 26.3302 26.0503 26.3277 26.0643 26.3294C26.0782 26.331 26.0915 26.3367 26.1025 26.3458C26.2225 26.4479 26.3475 26.549 26.4745 26.6458C26.4845 26.6535 26.4925 26.6636 26.4979 26.6752C26.5032 26.6869 26.5057 26.6997 26.5051 26.7126C26.5045 26.7255 26.5008 26.7381 26.4945 26.7491C26.4881 26.7602 26.4791 26.7695 26.4685 26.7761C25.8705 27.1344 25.2485 27.4375 24.5955 27.6896C24.5855 27.6934 24.5763 27.6994 24.5687 27.7071C24.5611 27.7149 24.5551 27.7243 24.5512 27.7346C24.5473 27.745 24.5456 27.7561 24.5462 27.7672C24.5467 27.7783 24.5496 27.7891 24.5545 27.799C24.9145 28.5146 25.3265 29.1958 25.7795 29.8427C25.7889 29.856 25.802 29.8659 25.8171 29.8711C25.8321 29.8764 25.8483 29.8766 25.8635 29.8719C28.0178 29.1965 30.0471 28.1467 31.8655 26.7667C31.8744 26.7602 31.8818 26.7519 31.8873 26.7422C31.8928 26.7325 31.8963 26.7216 31.8975 26.7104C32.3975 21.4042 31.0595 16.7938 28.3485 12.7083C28.3418 12.6951 28.3308 12.6847 28.3175 12.6792ZM16.0205 23.9146C14.8385 23.9146 13.8635 22.8011 13.8635 21.4354C13.8635 20.0688 14.8195 18.9563 16.0205 18.9563C17.2305 18.9563 18.1965 20.0781 18.1775 21.4354C18.1775 22.8021 17.2215 23.9146 16.0205 23.9146ZM23.9955 23.9146C22.8125 23.9146 21.8385 22.8011 21.8385 21.4354C21.8385 20.0688 22.7935 18.9563 23.9955 18.9563C25.2055 18.9563 26.1715 20.0781 26.1525 21.4354C26.1525 22.8021 25.2065 23.9146 23.9955 23.9146Z" fill="#F4F4F4"/>
<path d="M0.5 6.45341L6.30457 0.5H32.6813L38.5 7.06469V33.5466L32.6954 39.5H6.30457L0.5 33.5466V6.45341Z" stroke="white"/>
</svg>
