<svg width="43" height="43" viewBox="0 0 43 43" fill="none" xmlns="http://www.w3.org/2000/svg">
<path d="M38.2931 29.8849C37.3659 31.9442 36.9191 32.8646 35.7265 34.6821C34.0569 37.2217 31.702 40.393 28.7928 40.4131C26.2027 40.4367 25.5342 38.7234 22.0169 38.7536C18.503 38.7704 17.7707 40.4467 15.1772 40.4199C12.2647 40.393 10.0374 37.5375 8.36778 35.0012C3.69825 27.8894 3.20442 19.5514 6.09012 15.1171C8.13262 11.9727 11.361 10.125 14.3945 10.125C17.4851 10.125 19.4268 11.8215 21.98 11.8215C24.4592 11.8215 25.9675 10.1217 29.5419 10.1217C32.2429 10.1217 35.0983 11.5931 37.1408 14.1328C30.4624 17.7945 31.5475 27.3317 38.2931 29.8849ZM26.8275 7.28299C28.1276 5.61338 29.1153 3.25846 28.7558 0.859863C26.6361 1.00432 24.1568 2.35814 22.709 4.11174C21.3954 5.7108 20.307 8.08252 20.7303 10.377C23.0449 10.4509 25.4401 9.07018 26.8275 7.28299Z" fill="white"/>
</svg>
