<svg width="39" height="39" viewBox="0 0 39 39" fill="none" xmlns="http://www.w3.org/2000/svg">
<path d="M7.8002 5.2002C6.3637 5.2002 5.2002 6.3637 5.2002 7.8002V31.2002C5.2002 32.6367 6.3637 33.8002 7.8002 33.8002H31.2002C32.6367 33.8002 33.8002 32.6367 33.8002 31.2002V7.8002C33.8002 6.3637 32.6367 5.2002 31.2002 5.2002H7.8002ZM10.1691 14.5668C10.8152 14.5668 11.2381 14.9401 11.2381 15.4809C11.2381 16.0152 10.8152 16.3924 10.1691 16.3924C9.51654 16.3924 9.1002 16.0152 9.1002 15.4809C9.1002 14.9401 9.51654 14.5668 10.1691 14.5668ZM16.9967 15.0086C19.6435 15.0086 21.3029 16.8183 21.3029 19.7186C21.3029 22.6267 19.65 24.4336 16.9967 24.4336C14.3382 24.4336 12.6803 22.6254 12.6803 19.7186C12.6803 16.8118 14.3629 15.0086 16.9967 15.0086ZM26.31 15.0086C28.286 15.0086 29.6843 16.1138 29.7402 17.7102H27.9756C27.8885 17.0017 27.2301 16.532 26.3227 16.532C25.3841 16.532 24.7637 16.9667 24.7637 17.6492C24.7637 18.2017 25.1923 18.52 26.2414 18.7436L27.323 18.9721C29.1248 19.3504 29.9002 20.1278 29.9002 21.5188C29.9002 23.3271 28.5133 24.4336 26.2643 24.4336C24.1271 24.4336 22.7416 23.3822 22.674 21.7117H24.4895C24.5766 22.4384 25.3077 22.9051 26.3633 22.9051C27.3383 22.9051 28.0289 22.4322 28.0289 21.7549C28.0289 21.1829 27.5824 20.854 26.4826 20.6174L25.3146 20.3711C23.6805 20.0292 22.8797 19.1755 22.8797 17.8092C22.8797 16.1192 24.2417 15.0086 26.31 15.0086ZM16.9967 16.6539C15.5433 16.6539 14.5973 17.8427 14.5973 19.7186C14.5973 21.588 15.5238 22.7857 16.9967 22.7857C18.4566 22.7857 19.3885 21.5893 19.3885 19.7186C19.3885 17.8427 18.4566 16.6539 16.9967 16.6539ZM9.26016 17.3521H11.0705V24.2025H9.26016V17.3521Z" fill="white"/>
</svg>
