<svg width="43" height="43" viewBox="0 0 43 43" fill="none" xmlns="http://www.w3.org/2000/svg">
<g clip-path="url(#clip0_433_906)">
<path d="M14.0017 0.0270122C13.8908 0.0471684 13.7766 0.0673247 13.6792 0.134512C13.2861 0.399903 13.1988 0.950841 13.4642 1.34389L15.3186 4.11201C12.453 5.63045 10.3164 8.15334 9.62105 11.1801H33.3786C32.6832 8.15334 30.5466 5.63045 27.6811 4.11201L29.5354 1.34389C29.8008 0.950841 29.7135 0.399903 29.3204 0.134512C28.924 -0.130879 28.3764 -0.0166598 28.1111 0.376387L26.0686 3.38639C24.6509 2.86904 23.1123 2.58014 21.4998 2.58014C19.8873 2.58014 18.3487 2.86904 16.9311 3.38639L14.8886 0.376387C14.6904 0.0807622 14.3309 -0.036816 14.0017 0.0270122ZM16.7698 6.88014C17.482 6.88014 18.0598 7.45795 18.0598 8.17014C18.0598 8.88568 17.482 9.46014 16.7698 9.46014C16.0543 9.46014 15.4798 8.88568 15.4798 8.17014C15.4798 7.45795 16.0543 6.88014 16.7698 6.88014ZM26.2298 6.88014C26.9454 6.88014 27.5198 7.45795 27.5198 8.17014C27.5198 8.88568 26.9454 9.46014 26.2298 9.46014C25.5176 9.46014 24.9398 8.88568 24.9398 8.17014C24.9398 7.45795 25.5176 6.88014 26.2298 6.88014ZM6.8798 12.9001C5.45543 12.9001 4.2998 14.0558 4.2998 15.4801V27.5201C4.2998 28.9445 5.45543 30.1001 6.8798 30.1001C7.18215 30.1001 7.47105 30.0363 7.7398 29.9389V13.0614C7.47105 12.964 7.18215 12.9001 6.8798 12.9001ZM9.4598 12.9001V31.8201C9.4598 33.2412 10.6188 34.4001 12.0398 34.4001H30.9598C32.3808 34.4001 33.5398 33.2412 33.5398 31.8201V12.9001H9.4598ZM36.1198 12.9001C35.8175 12.9001 35.5286 12.964 35.2598 13.0614V29.9389C35.5286 30.033 35.8175 30.1001 36.1198 30.1001C37.5442 30.1001 38.6998 28.9445 38.6998 27.5201V15.4801C38.6998 14.0558 37.5442 12.9001 36.1198 12.9001ZM12.8998 36.1201V39.5601C12.8998 41.4582 14.4418 43.0001 16.3398 43.0001C18.2379 43.0001 19.7798 41.4582 19.7798 39.5601V36.1201H12.8998ZM23.2198 36.1201V39.5601C23.2198 41.4582 24.7618 43.0001 26.6598 43.0001C28.5579 43.0001 30.0998 41.4582 30.0998 39.5601V36.1201H23.2198Z" fill="white"/>
</g>
<defs>
<clipPath id="clip0_433_906">
<rect width="43" height="43" fill="white"/>
</clipPath>
</defs>
</svg>
