<svg width="40" height="40" viewBox="0 0 40 40" fill="none" xmlns="http://www.w3.org/2000/svg">
<path d="M0.5 6.45711L6.45711 0.5H33.5288L39.5 7.0683V33.5429L33.5429 39.5H6.45711L0.5 33.5429V6.45711Z" fill="#EC5974" stroke="#EC5974"/>
<path d="M20.0004 16.6154C18.1367 16.6154 16.6158 18.1363 16.6158 20C16.6158 21.8636 18.1367 23.3845 20.0004 23.3845C21.864 23.3845 23.3849 21.8636 23.3849 20C23.3849 18.1363 21.864 16.6154 20.0004 16.6154ZM30.1515 20C30.1515 18.5984 30.1642 17.2095 30.0855 15.8105C30.0068 14.1855 29.6361 12.7433 28.4478 11.5551C27.257 10.3642 25.8174 9.99607 24.1924 9.91736C22.7908 9.83865 21.4019 9.85134 20.0029 9.85134C18.6013 9.85134 17.2125 9.83865 15.8135 9.91736C14.1885 9.99607 12.7463 10.3668 11.558 11.5551C10.3672 12.7459 9.999 14.1855 9.92029 15.8105C9.84158 17.2121 9.85427 18.6009 9.85427 20C9.85427 21.399 9.84158 22.7904 9.92029 24.1894C9.999 25.8144 10.3697 27.2566 11.558 28.4449C12.7488 29.6357 14.1885 30.0039 15.8135 30.0826C17.215 30.1613 18.6039 30.1486 20.0029 30.1486C21.4045 30.1486 22.7933 30.1613 24.1924 30.0826C25.8174 30.0039 27.2595 29.6332 28.4478 28.4449C29.6386 27.2541 30.0068 25.8144 30.0855 24.1894C30.1668 22.7904 30.1515 21.4015 30.1515 20ZM20.0004 25.2076C17.1185 25.2076 14.7927 22.8818 14.7927 20C14.7927 17.1181 17.1185 14.7924 20.0004 14.7924C22.8822 14.7924 25.208 17.1181 25.208 20C25.208 22.8818 22.8822 25.2076 20.0004 25.2076ZM25.4213 15.7953C24.7484 15.7953 24.2051 15.2519 24.2051 14.5791C24.2051 13.9062 24.7484 13.3629 25.4213 13.3629C26.0941 13.3629 26.6375 13.9062 26.6375 14.5791C26.6377 14.7388 26.6064 14.8971 26.5453 15.0447C26.4843 15.1924 26.3947 15.3265 26.2817 15.4395C26.1687 15.5525 26.0346 15.6421 25.8869 15.7031C25.7393 15.7642 25.581 15.7955 25.4213 15.7953Z" fill="#F4F4F4"/>
</svg>
