<svg width="287" height="27" viewBox="0 0 287 27" fill="none" xmlns="http://www.w3.org/2000/svg">
<path d="M21.0973 2.59034H18.8316L12.1228 16.2386L5.41405 2.59034H3.11895L0.912109 22.9752H3.50148L4.79615 11.1059C5.03152 8.94787 4.88439 6.7315 4.88439 6.7315C4.88439 6.7315 5.70829 8.94787 6.64988 10.8726L12.1228 22.0128L17.5663 10.8726C18.5374 8.94787 19.3318 6.7315 19.3318 6.7315C19.3318 6.7315 19.1847 8.94787 19.4201 11.1059L20.7148 22.9752H23.3335L21.0973 2.59034ZM33.2555 8.04381C28.7534 8.04381 25.0753 11.4267 25.0753 15.5678C25.0753 19.7381 29.0182 23.121 33.8732 23.121C36.8157 23.121 39.5227 21.8379 41.1411 19.7965L38.7578 18.7758C37.5809 20.0298 35.8153 20.788 33.8732 20.788C30.9014 20.788 28.4298 19.0382 27.8118 16.7052H41.3766C41.4355 16.3261 41.4648 15.947 41.4648 15.5678C41.4648 11.4267 37.7867 8.04381 33.2555 8.04381ZM27.7824 14.4597C28.3415 12.1266 30.5777 10.3769 33.2555 10.3769C35.9625 10.3769 38.1987 12.1266 38.7578 14.4597H27.7824ZM52.2529 10.6393V8.27712H47.8096V3.55272L45.2204 4.92339V8.27712H42.1897V10.6393H45.2204V17.5218C45.2204 19.1549 45.3676 20.9921 47.1036 22.1003C47.9864 22.6836 49.1925 22.8586 50.458 22.8586C51.0464 22.8586 51.6348 22.8294 52.2529 22.7711V20.4089C50.9285 20.5547 49.3104 20.6422 48.6041 20.1756C48.1039 19.8548 47.8096 19.3299 47.8096 17.5218V10.6393H52.2529ZM67.5645 8.27712V10.9309C67.4177 10.7559 67.2998 10.6101 67.1233 10.4643C66.4466 9.73527 65.5931 9.12284 64.6221 8.71456C63.6513 8.27712 62.5624 8.07298 61.4738 8.04381C60.3852 8.01466 59.2962 8.2188 58.2959 8.59792C57.2662 8.97702 56.3538 9.56028 55.6182 10.2602C54.1176 11.6892 53.2644 13.6431 53.2937 15.5678C53.2644 17.5218 54.1176 19.4757 55.6182 20.8755C56.3538 21.6046 57.2662 22.1878 58.2959 22.5669C59.2962 22.946 60.3852 23.121 61.4738 23.121C62.5624 23.0919 63.6513 22.8586 64.6221 22.4503C65.5931 22.0128 66.4466 21.4296 67.1526 20.7005C67.2998 20.5547 67.4177 20.3797 67.5645 20.2339V22.8586H70.154V8.27712H67.5645ZM65.6521 19.4174C64.4752 20.3506 62.945 20.8172 61.4738 20.788C60.7382 20.7589 60.0026 20.613 59.3259 20.3506C58.6489 20.0881 58.0311 19.709 57.531 19.2132C56.4717 18.28 55.8536 16.9385 55.8536 15.5678C55.8536 14.2264 56.4717 12.8849 57.531 11.9225C58.5606 10.9601 60.0026 10.406 61.4738 10.3769C62.945 10.3477 64.4752 10.7851 65.6521 11.7475C66.8289 12.6807 67.5645 14.1097 67.5645 15.5678C67.5645 17.0552 66.8289 18.4842 65.6521 19.4174ZM84.9072 18.3966C83.2006 16.8509 82.259 14.8096 82.259 12.593C82.259 10.4057 83.2006 8.36438 84.9072 6.81876C88.4676 3.61088 94.2348 3.61088 97.7657 6.81876L99.6195 5.1565C95.0587 1.04451 87.6437 1.04451 83.0829 5.1565C80.8761 7.13957 79.6696 9.79349 79.6696 12.593C79.6696 15.4218 80.8761 18.0758 83.0829 20.0587C85.3486 22.1 88.3499 23.1209 91.3512 23.1209C94.3231 23.1209 97.3243 22.1 99.6195 20.0587L97.7657 18.3966C94.2348 21.6043 88.4676 21.6043 84.9072 18.3966ZM108.511 7.86864C104.009 7.86864 100.331 11.2516 100.331 15.3928C100.331 19.563 104.273 22.9459 109.128 22.9459C112.071 22.9459 114.778 21.6627 116.396 19.6214L114.013 18.6005C112.836 19.8547 111.07 20.6128 109.128 20.6128C106.157 20.6128 103.685 18.8629 103.067 16.5301H116.632C116.691 16.1509 116.72 15.7717 116.72 15.3928C116.72 11.2516 113.042 7.86864 108.511 7.86864ZM103.038 14.2845C103.597 11.9514 105.833 10.2018 108.511 10.2018C111.218 10.2018 113.454 11.9514 114.013 14.2845H103.038ZM132.558 22.6836V14.6637C132.617 13.2055 132.323 11.514 131.263 10.1143C130.734 9.41427 129.968 8.80202 129.086 8.4228C128.203 8.04357 127.203 7.89769 126.32 7.92706C125.849 7.95611 125.408 8.01453 124.937 8.13104C124.495 8.24787 124.054 8.4228 123.672 8.62677C122.848 9.06441 122.2 9.70603 121.788 10.3767C121.759 10.4351 121.73 10.4642 121.73 10.4932V8.10199H119.14V22.6836H121.73V14.9261C121.73 14.8386 121.73 14.7512 121.73 14.6637C121.788 13.9927 121.906 13.3514 122.142 12.7679C122.377 12.2141 122.759 11.689 123.171 11.2807C124.054 10.4642 125.172 10.2018 126.32 10.2599C127.468 10.3476 128.38 10.7559 129.056 11.5431C129.351 11.9223 129.616 12.418 129.763 12.9432C129.851 13.2055 129.91 13.4679 129.939 13.7597C129.939 13.9053 129.968 14.0511 129.968 14.197V14.4013V14.6637V22.6836H132.558ZM143.916 10.4642V8.10199H139.473V3.37756L136.883 4.74822V8.10199H133.852V10.4642H136.883V17.3467C136.883 18.9798 137.03 20.8171 138.766 21.9251C139.649 22.5083 140.855 22.6836 142.121 22.6836C142.709 22.6836 143.298 22.6542 143.916 22.5958V20.2336C142.592 20.3795 140.973 20.467 140.267 20.0006C139.767 19.6798 139.473 19.1547 139.473 17.3467V10.4642H143.916ZM153.359 7.92706C152.889 7.95611 152.447 8.01453 151.976 8.13104C151.535 8.24787 151.094 8.4228 150.711 8.62677C149.887 9.06441 149.24 9.70603 148.828 10.3767C148.799 10.4351 148.799 10.4642 148.769 10.4932V8.10199H146.18V22.6836H148.769V14.9261C148.769 14.8386 148.769 14.7512 148.769 14.6637C148.828 13.9927 148.946 13.3514 149.181 12.7679C149.417 12.2141 149.799 11.689 150.211 11.2807C151.094 10.4642 152.212 10.2018 153.359 10.2599C154.066 10.3183 154.654 10.4932 155.184 10.785L155.772 8.30596C155.007 8.01453 154.154 7.89769 153.359 7.92706ZM170.261 8.10199V10.7559C170.115 10.5807 169.997 10.4351 169.82 10.2892C169.143 9.56015 168.29 8.94758 167.319 8.53931C166.348 8.10199 165.259 7.89769 164.171 7.86864C163.082 7.8396 161.993 8.04357 160.993 8.4228C159.963 8.80202 159.051 9.38522 158.315 10.0849C156.814 11.514 155.961 13.4679 155.991 15.3928C155.961 17.3467 156.814 19.3006 158.315 20.7003C159.051 21.4294 159.963 22.0126 160.993 22.3918C161.993 22.771 163.082 22.9459 164.171 22.9459C165.259 22.9166 166.348 22.6835 167.319 22.2753C168.29 21.8376 169.143 21.2545 169.849 20.5254C169.997 20.3795 170.115 20.2046 170.261 20.0587V22.6836H172.851V8.10199H170.261ZM168.349 19.2421C167.172 20.1755 165.642 20.6419 164.171 20.6128C163.435 20.5838 162.699 20.4379 162.023 20.1755C161.346 19.9128 160.728 19.5339 160.228 19.0382C159.169 18.1048 158.55 16.7635 158.55 15.3928C158.55 14.0511 159.169 12.7098 160.228 11.7474C161.257 10.785 162.699 10.2308 164.171 10.2018C165.642 10.1724 167.172 10.61 168.349 11.5725C169.526 12.5055 170.261 13.9346 170.261 15.3928C170.261 16.88 169.526 18.3091 168.349 19.2421ZM178.567 22.6836V2.29853H175.978V22.6836H178.567ZM209.368 2.44459H205.396L199.57 13.7597L193.744 2.44459H189.771L187.564 22.8585H191.772L192.537 15.772C192.949 11.8642 192.773 8.36468 192.773 8.36468C192.773 8.36468 193.508 10.9602 195.303 14.4597L199.57 22.742L203.866 14.4013C205.631 10.9308 206.367 8.36468 206.367 8.36468C206.367 8.36468 206.161 11.8642 206.602 15.772C206.602 15.801 206.602 15.801 206.602 15.801L207.367 22.8294H211.575L209.368 2.44459ZM226.754 8.10229V10.0852C226.165 9.50203 225.518 8.97693 224.694 8.56866C223.752 8.13134 222.693 7.86895 221.575 7.81053C220.486 7.78148 219.368 7.95641 218.368 8.36468C217.338 8.74359 216.426 9.32711 215.661 10.0268C214.16 11.485 213.336 13.4389 213.366 15.3637C213.336 17.3176 214.16 19.2715 215.661 20.7297C216.426 21.4297 217.338 22.0129 218.368 22.3921C219.368 22.8004 220.486 22.9753 221.575 22.9459C222.693 22.9169 223.752 22.6251 224.724 22.1878C225.518 21.7795 226.165 21.2548 226.754 20.6712V22.6836H230.755V8.10229H226.754ZM226.253 17.1717C225.959 17.6968 225.488 18.1635 224.959 18.5134C224.429 18.8342 223.87 19.0675 223.282 19.2131C222.722 19.3299 222.134 19.359 221.575 19.3299C220.457 19.2715 219.427 18.8632 218.633 18.1341C218.221 17.7843 217.897 17.3466 217.662 16.8803C217.456 16.4136 217.338 15.8885 217.338 15.3637C217.338 14.868 217.456 14.3429 217.662 13.8765C217.897 13.4098 218.221 12.9725 218.633 12.6223C219.427 11.8932 220.457 11.485 221.575 11.3975C222.134 11.3685 222.722 11.4269 223.282 11.5434C223.87 11.6599 224.458 11.8932 224.959 12.2434C225.488 12.5933 225.959 13.06 226.253 13.5847C226.577 14.1389 226.754 14.7511 226.754 15.3637C226.754 16.0053 226.577 16.6176 226.253 17.1717ZM237.842 22.6836V2.26966H233.87V22.6836H237.842ZM244.911 22.6836V2.26966H240.939V22.6836H244.911Z" fill="white"/>
<path fill-rule="evenodd" clip-rule="evenodd" d="M272.105 22.4518V22.4592H284.699L272.101 10.1368L272.105 22.4137L251.208 1.97559L251.215 22.4518H272.105Z" fill="white"/>
</svg>
