<svg width="455" height="41" viewBox="0 0 455 41" fill="none" xmlns="http://www.w3.org/2000/svg">
<path d="M33.4472 3.93331H29.8553L19.2194 24.6584L8.58351 3.93331H4.94493L1.44629 34.8881H5.55138L7.60391 16.8644C7.97706 13.5873 7.74381 10.2217 7.74381 10.2217C7.74381 10.2217 9.05 13.5873 10.5428 16.5101L19.2194 33.4267L27.8493 16.5101C29.3888 13.5873 30.6483 10.2217 30.6483 10.2217C30.6483 10.2217 30.415 13.5873 30.7882 16.8644L32.8408 34.8881H36.9925L33.4472 3.93331ZM52.7223 12.2145C45.5849 12.2145 39.7539 17.3515 39.7539 23.6399C39.7539 29.9726 46.0047 35.1096 53.7017 35.1096C58.3666 35.1096 62.6582 33.1611 65.224 30.0611L61.4455 28.5112C59.5798 30.4154 56.7806 31.5668 53.7017 31.5668C48.9903 31.5668 45.0718 28.9098 44.0922 25.367H65.5972C65.6907 24.7913 65.7371 24.2156 65.7371 23.6399C65.7371 17.3515 59.906 12.2145 52.7223 12.2145ZM44.0455 21.9571C44.9319 18.4143 48.4771 15.7573 52.7223 15.7573C57.014 15.7573 60.5591 18.4143 61.4455 21.9571H44.0455ZM82.8402 16.1558V12.5688H75.7959V5.3947L71.6911 7.47609V12.5688H66.8863V16.1558H71.6911V26.607C71.6911 29.0869 71.9245 31.8768 74.6767 33.5596C76.0762 34.4453 77.9884 34.711 79.9946 34.711C80.9275 34.711 81.8604 34.6667 82.8402 34.5781V30.9911C80.7406 31.2126 78.1753 31.3454 77.0556 30.6368C76.2626 30.1497 75.7959 29.3526 75.7959 26.607V16.1558H82.8402ZM107.115 12.5688V16.5987C106.882 16.3329 106.695 16.1115 106.415 15.8901C105.342 14.783 103.989 13.853 102.45 13.2331C100.911 12.5688 99.1846 12.2588 97.4587 12.2145C95.7329 12.1702 94.0065 12.4802 92.4206 13.0559C90.7882 13.6316 89.3416 14.5173 88.1754 15.5801C85.7965 17.75 84.4437 20.7171 84.4902 23.6399C84.4437 26.607 85.7965 29.574 88.1754 31.6997C89.3416 32.8068 90.7882 33.6924 92.4206 34.2682C94.0065 34.8438 95.7329 35.1096 97.4587 35.1096C99.1846 35.0653 100.911 34.711 102.45 34.091C103.989 33.4267 105.342 32.5411 106.462 31.434C106.695 31.2126 106.882 30.9468 107.115 30.7254V34.711H111.22V12.5688H107.115ZM104.083 29.4855C102.217 30.9026 99.7912 31.6111 97.4587 31.5668C96.2925 31.5225 95.1263 31.3011 94.0535 30.9026C92.9802 30.504 92.0008 29.9283 91.2079 29.1754C89.5285 27.7583 88.5486 25.7213 88.5486 23.6399C88.5486 21.6028 89.5285 19.5657 91.2079 18.1043C92.8403 16.643 95.1263 15.8015 97.4587 15.7573C99.7912 15.713 102.217 16.3772 104.083 17.8386C105.949 19.2558 107.115 21.4257 107.115 23.6399C107.115 25.8984 105.949 28.0684 104.083 29.4855ZM134.609 27.9353C131.904 25.5883 130.411 22.4885 130.411 19.1225C130.411 15.8011 131.904 12.7013 134.609 10.3542C140.254 5.48301 149.397 5.48301 154.995 10.3542L157.934 7.83007C150.703 1.58594 138.948 1.58594 131.717 7.83007C128.218 10.8414 126.306 14.8714 126.306 19.1225C126.306 23.4182 128.218 27.4482 131.717 30.4593C135.309 33.5592 140.067 35.1093 144.825 35.1093C149.537 35.1093 154.295 33.5592 157.934 30.4593L154.995 27.9353C149.397 32.8064 140.254 32.8064 134.609 27.9353ZM172.029 11.9485C164.892 11.9485 159.061 17.0857 159.061 23.3741C159.061 29.7065 165.312 34.8437 173.009 34.8437C177.673 34.8437 181.966 32.8951 184.531 29.7952L180.752 28.2451C178.887 30.1496 176.088 31.3008 173.009 31.3008C168.297 31.3008 164.379 28.6435 163.399 25.1011H184.904C184.998 24.5253 185.044 23.9494 185.044 23.3741C185.044 17.0857 179.213 11.9485 172.029 11.9485ZM163.353 21.6911C164.239 18.1482 167.784 15.4914 172.029 15.4914C176.321 15.4914 179.866 18.1482 180.752 21.6911H163.353ZM210.153 34.4452V22.2669C210.247 20.0527 209.78 17.4841 208.101 15.3586C207.261 14.2956 206.048 13.3659 204.648 12.79C203.249 12.2141 201.663 11.9926 200.264 12.0372C199.517 12.0813 198.818 12.17 198.071 12.347C197.371 12.5244 196.672 12.79 196.065 13.0997C194.759 13.7643 193.733 14.7386 193.079 15.757C193.033 15.8457 192.987 15.8898 192.987 15.9339V12.3028H188.881V34.4452H192.987V22.6654C192.987 22.5326 192.987 22.3997 192.987 22.2669C193.08 21.248 193.266 20.2742 193.64 19.3881C194.013 18.5471 194.619 17.7497 195.272 17.1298C196.672 15.8898 198.444 15.4914 200.264 15.5796C202.083 15.7129 203.529 16.3329 204.602 17.5282C205.069 18.1041 205.488 18.8569 205.722 19.6542C205.862 20.0527 205.955 20.4511 206.001 20.8942C206.001 21.1152 206.048 21.3367 206.048 21.5583V21.8685V22.2669V34.4452H210.153ZM228.159 15.8898V12.3028H221.115V5.12872L217.01 7.21009V12.3028H212.205V15.8898H217.01V26.3411C217.01 28.8209 217.243 31.611 219.996 33.2935C221.395 34.1791 223.307 34.4452 225.314 34.4452C226.246 34.4452 227.179 34.4006 228.159 34.3119V30.725C226.06 30.9465 223.494 31.0793 222.374 30.3711C221.582 29.884 221.115 29.0866 221.115 26.3411V15.8898H228.159ZM243.131 12.0372C242.385 12.0813 241.685 12.17 240.939 12.347C240.239 12.5244 239.539 12.79 238.933 13.0997C237.627 13.7643 236.6 14.7386 235.947 15.757C235.9 15.8457 235.9 15.8898 235.854 15.9339V12.3028H231.749V34.4452H235.854V22.6654C235.854 22.5326 235.854 22.3997 235.854 22.2669C235.947 21.248 236.134 20.2742 236.507 19.3881C236.88 18.5471 237.486 17.7497 238.14 17.1298C239.539 15.8898 241.312 15.4914 243.131 15.5796C244.251 15.6683 245.184 15.934 246.023 16.377L246.956 12.6126C245.743 12.17 244.391 11.9926 243.131 12.0372ZM269.927 12.3028V16.3329C269.694 16.0668 269.507 15.8457 269.227 15.6242C268.155 14.5171 266.801 13.5869 265.262 12.9669C263.723 12.3029 261.997 11.9926 260.271 11.9485C258.545 11.9044 256.819 12.2141 255.233 12.79C253.6 13.3659 252.154 14.2515 250.987 15.314C248.609 17.4841 247.256 20.4511 247.302 23.3741C247.256 26.3411 248.609 29.3081 250.987 31.4336C252.154 32.5407 253.6 33.4263 255.233 34.0022C256.819 34.578 258.545 34.8437 260.271 34.8437C261.997 34.7991 263.723 34.4452 265.262 33.8252C266.801 33.1607 268.155 32.2751 269.274 31.168C269.507 30.9465 269.694 30.6808 269.927 30.4593V34.4452H274.032V12.3028H269.927ZM266.895 29.2194C265.029 30.6367 262.603 31.3449 260.271 31.3008C259.105 31.2567 257.938 31.0352 256.866 30.6367C255.792 30.2378 254.813 29.6624 254.02 28.9096C252.341 27.4923 251.361 25.4555 251.361 23.3741C251.361 21.3367 252.341 19.2999 254.02 17.8384C255.652 16.377 257.938 15.5355 260.271 15.4914C262.603 15.4468 265.029 16.1114 266.895 17.5728C268.761 18.9897 269.927 21.1598 269.927 23.3741C269.927 25.6324 268.761 27.8025 266.895 29.2194ZM283.095 34.4452V3.49019H278.99V34.4452H283.095ZM331.925 3.71198H325.627L316.391 20.8941L307.155 3.71198H300.857L297.358 34.7108H304.029L305.242 23.9499C305.895 18.0158 305.615 12.7018 305.615 12.7018C305.615 12.7018 306.781 16.6431 309.627 21.9572L316.391 34.5339L323.202 21.8685C326.001 16.5985 327.167 12.7018 327.167 12.7018C327.167 12.7018 326.84 18.0158 327.54 23.9499C327.54 23.994 327.54 23.994 327.54 23.994L328.753 34.6667H335.424L331.925 3.71198ZM359.488 12.3033V15.3144C358.555 14.4288 357.528 13.6315 356.222 13.0115C354.73 12.3474 353.05 11.949 351.278 11.8603C349.552 11.8162 347.779 12.0818 346.193 12.7018C344.56 13.2771 343.114 14.1632 341.901 15.2257C339.522 17.44 338.216 20.407 338.263 23.3299C338.216 26.2969 339.522 29.264 341.901 31.4782C343.114 32.5412 344.56 33.4268 346.193 34.0027C347.779 34.6226 349.552 34.8883 351.278 34.8437C353.05 34.7996 354.73 34.3565 356.269 33.6924C357.528 33.0725 358.555 32.2756 359.488 31.3895V34.4452H365.832V12.3033H359.488ZM358.695 26.0754C358.228 26.8728 357.482 27.5815 356.642 28.1127C355.803 28.5999 354.916 28.9542 353.983 29.1752C353.097 29.3527 352.164 29.3968 351.278 29.3527C349.505 29.264 347.872 28.644 346.613 27.5369C345.96 27.0056 345.447 26.341 345.073 25.6329C344.747 24.9242 344.56 24.1268 344.56 23.3299C344.56 22.5771 344.747 21.7797 345.073 21.0716C345.447 20.3629 345.96 19.6988 346.613 19.1671C347.872 18.0599 349.505 17.44 351.278 17.3072C352.164 17.263 353.097 17.3518 353.983 17.5287C354.916 17.7056 355.849 18.0599 356.642 18.5917C357.482 19.1229 358.228 19.8316 358.695 20.6285C359.208 21.47 359.488 22.3997 359.488 23.3299C359.488 24.3042 359.208 25.2339 358.695 26.0754ZM377.067 34.4452V3.44634H370.77V34.4452H377.067ZM388.274 34.4452V3.44634H381.976V34.4452H388.274Z" fill="white"/>
<path fill-rule="evenodd" clip-rule="evenodd" d="M431.385 34.0935V34.1047H451.352L431.378 15.393L431.385 34.0356L398.256 3L398.266 34.0935H431.385Z" fill="white"/>
</svg>
