<svg width="39" height="40" viewBox="0 0 39 40" fill="none" xmlns="http://www.w3.org/2000/svg">
<path d="M31.1649 11.3925L27.438 28.8269C27.1566 30.0572 26.4236 30.3634 25.3819 29.7842L19.7029 25.6332L16.9631 28.2477C16.6596 28.5487 16.4065 28.7998 15.8216 28.7998L16.23 23.0633L26.7544 13.6299C27.2122 13.2257 26.6547 13.0008 26.0434 13.4059L13.0324 21.5329L7.43108 19.7934C6.21289 19.4163 6.19084 18.585 7.68512 18.0049L29.5939 9.63205C30.6083 9.25492 31.4957 9.85605 31.1649 11.3934V11.3925Z" fill="#F4F4F4"/>
<path d="M0.5 6.45341L6.30457 0.5H32.6813L38.5 7.06469V33.5466L32.6954 39.5H6.30457L0.5 33.5466V6.45341Z" stroke="white"/>
</svg>
